<svg id="Capa_1" enable-background="new 0 0 512 512" viewBox="0 0 512 512" xmlns="http://www.w3.org/2000/svg"><g><path d="m377.844 316.309h-243.688c-8.284 0-15-6.716-15-15v-60c0-3.564 1.27-7.014 3.581-9.728 33.339-39.136 81.911-61.581 133.263-61.581s99.924 22.445 133.263 61.581c2.312 2.714 3.581 6.163 3.581 9.728v60c0 8.284-6.716 15-15 15z" fill="#ff5e82"/><path d="m377.844 316.309c8.284 0 15-6.716 15-15v-60c0-3.564-1.27-7.014-3.581-9.728-33.339-39.136-81.911-61.581-133.263-61.581v146.309z" fill="#b7457d"/><path d="m256 512c-1.784 0-3.569-.318-5.267-.955l-160-60c-5.854-2.195-9.733-7.792-9.733-14.045v-210c0-4.92 2.412-9.526 6.456-12.329 4.043-2.803 9.204-3.445 13.811-1.716l154.733 58.025 154.733-58.025c4.604-1.729 9.767-1.087 13.811 1.716s6.456 7.409 6.456 12.329v210c0 6.253-3.879 11.85-9.733 14.045l-160 60c-1.698.637-3.483.955-5.267.955z" fill="#a4e9ff"/><g><path d="m421.267 451.045c5.854-2.195 9.733-7.792 9.733-14.045v-210c0-4.92-2.412-9.526-6.456-12.329s-9.206-3.445-13.811-1.716l-154.733 58.025v241.02c1.784 0 3.569-.318 5.267-.955z" fill="#91bbff"/></g><path d="m256 200c-55.141 0-100-44.859-100-100s44.859-100 100-100 100 44.859 100 100-44.859 100-100 100z" fill="#ffd6aa"/><path d="m356 100c0-55.141-44.859-100-100-100v200c55.141 0 100-44.859 100-100z" fill="#fac68f"/><g><g><path d="m428.5 380h-15c-9.649 0-17.5-7.851-17.5-17.5v-50c0-9.649 7.851-17.5 17.5-17.5h15c23.435 0 42.5 19.065 42.5 42.5s-19.065 42.5-42.5 42.5z" fill="#fac68f"/><path d="m98.5 380h-15c-23.435 0-42.5-19.065-42.5-42.5s19.065-42.5 42.5-42.5h15c9.649 0 17.5 7.851 17.5 17.5v50c0 9.649-7.851 17.5-17.5 17.5z" fill="#ffd6aa"/></g></g></g></svg>