<svg width="43" height="40" viewBox="0 0 43 40" fill="none" xmlns="http://www.w3.org/2000/svg">
<g clip-path="url(#clip0)">
<path d="M40.1218 1.76562H25.1303C23.9029 1.76562 22.7437 2.21508 21.8663 3.03133C21.5539 3.32187 21.2905 3.64789 21.0784 3.9993C20.8662 3.64789 20.6028 3.32187 20.2904 3.03133C19.413 2.21516 18.2539 1.76562 17.0264 1.76562H2.03494C0.912571 1.76562 -0.000488281 2.63375 -0.000488281 3.70078V31.3953C-0.000488281 32.4623 0.912571 33.3305 2.03494 33.3305H6.11534C5.2614 34.902 5.8815 36.8998 7.51642 37.7955C9.1828 38.7083 11.4359 38.158 12.3959 36.5549L14.358 33.3305H21.0704C21.073 33.3305 21.0756 33.3309 21.0784 33.3309H40.1215C41.244 33.3309 42.1572 32.4626 42.1572 31.3953V3.70078C42.1572 2.63375 41.2441 1.76562 40.1218 1.76562ZM2.03494 32.1586C1.5936 32.1586 1.2346 31.8162 1.2346 31.3953V27.4711H9.67412L6.82181 32.1586H2.03494ZM11.3263 35.969C10.6961 37.0153 9.22447 37.378 8.13397 36.7806C7.02815 36.1748 6.63778 34.7934 7.27854 33.7516L11.2844 27.1684C11.2854 27.1666 11.2866 27.1649 11.2876 27.1632L12.3738 25.3781C12.4432 25.2709 12.5551 25.255 12.655 25.3066L16.3462 27.3287C16.4445 27.3825 16.4782 27.5022 16.4216 27.5955L11.3263 35.969ZM14.1639 24.7801L15.1832 23.1051C15.4787 23.3093 15.7869 23.5002 16.108 23.6761C16.4305 23.8527 16.7591 24.0099 17.0921 24.1498L16.0725 25.8254L14.1639 24.7801ZM20.4608 32.1586H15.071L17.4912 28.1814C17.6233 27.9641 17.6844 27.7266 17.6828 27.4923C19.2447 27.6666 20.4608 28.9296 20.4608 30.4577V32.1586ZM20.4608 27.5684C19.6454 26.768 18.4721 26.2688 17.2104 26.2992L18.2665 24.5637C18.9887 24.7709 19.7245 24.8988 20.4608 24.9505V27.5684ZM16.7256 22.6612C16.258 22.4052 15.8207 22.1135 15.4159 21.7906C15.4143 21.7893 15.4127 21.7881 15.4112 21.7868C14.0127 20.6698 13.0078 19.1773 12.5247 17.4667C11.9014 15.2596 12.2213 12.9542 13.4254 10.9753C13.5959 10.6951 13.4947 10.3367 13.1994 10.1749C12.904 10.013 12.5263 10.1091 12.3558 10.3894C10.9868 12.6394 10.623 15.2605 11.3317 17.7701C11.8341 19.5494 12.8336 21.121 14.2175 22.3484L13.0862 24.2076C12.4336 23.9558 11.6548 24.2097 11.3042 24.7923L10.3872 26.2994H1.2346V3.70078C1.2346 3.27992 1.5936 2.9375 2.03494 2.9375H17.0264C18.6707 2.9375 20.0703 4.07047 20.3906 5.55883C18.1173 5.73852 15.9315 6.65016 14.2659 8.11492C14.0157 8.33492 14.0009 8.70562 14.2327 8.94297C14.4645 9.18031 14.8552 9.19445 15.1054 8.97445C16.7536 7.52523 18.978 6.70016 21.2336 6.69562C22.8111 6.6925 24.3518 7.08266 25.7416 7.84398C30.0471 10.2025 31.5276 15.4448 29.0418 19.5299C26.5561 23.6151 21.0311 25.0198 16.7256 22.6612ZM40.9221 26.2996H37.0022C36.661 26.2996 36.3846 26.562 36.3846 26.8855C36.3846 27.2091 36.661 27.4715 37.0022 27.4715H40.9221V31.3953C40.9221 31.8164 40.563 32.159 40.1215 32.159H21.6959V30.458C21.6959 28.8112 23.1078 27.4715 24.8436 27.4715H34.1203C34.4614 27.4715 34.7379 27.2091 34.7379 26.8855C34.7379 26.562 34.4614 26.2996 34.1203 26.2996H24.8436C23.6092 26.2996 22.4933 26.787 21.6959 27.5688V24.9654C25.0704 24.8155 28.3006 23.0919 30.1115 20.1159C32.9377 15.4713 31.2545 9.51078 26.3593 6.82922C24.9373 6.05031 23.3763 5.61461 21.7707 5.53742C22.0998 4.05961 23.4939 2.9375 25.1303 2.9375H40.1218C40.563 2.9375 40.9221 3.27992 40.9221 3.70078V26.2996ZM3.08723 16.9246H8.72747C9.06852 16.9246 9.34501 16.6623 9.34501 16.3387C9.34501 16.0151 9.06852 15.7527 8.72747 15.7527H3.08723C2.74618 15.7527 2.46969 16.0151 2.46969 16.3387C2.46969 16.6623 2.74618 16.9246 3.08723 16.9246ZM3.08723 13.409H8.72747C9.06852 13.409 9.34501 13.1466 9.34501 12.823C9.34501 12.4995 9.06852 12.2371 8.72747 12.2371H3.08723C2.74618 12.2371 2.46969 12.4995 2.46969 12.823C2.46969 13.1466 2.74618 13.409 3.08723 13.409ZM39.0695 8.72148H32.1941C31.853 8.72148 31.5766 8.98383 31.5766 9.30742C31.5766 9.63102 31.853 9.89336 32.1941 9.89336H39.0695C39.4106 9.89336 39.687 9.63102 39.687 9.30742C39.687 8.98383 39.4106 8.72148 39.0695 8.72148ZM39.0695 5.28125H29.724C29.3828 5.28125 29.1064 5.54359 29.1064 5.86719C29.1064 6.19078 29.3828 6.45312 29.724 6.45312H39.0695C39.4106 6.45312 39.687 6.19078 39.687 5.86719C39.687 5.54359 39.4106 5.28125 39.0695 5.28125ZM3.08723 20.4402H9.46852C9.80957 20.4402 10.0861 20.1779 10.0861 19.8543C10.0861 19.5307 9.80957 19.2684 9.46852 19.2684H3.08723C2.74618 19.2684 2.46969 19.5307 2.46969 19.8543C2.46969 20.1779 2.74618 20.4402 3.08723 20.4402ZM24.4836 9.91148C21.3797 8.21117 17.3964 9.22375 15.6044 12.1689C13.8123 15.114 14.8796 18.8934 17.9835 20.5938C21.0508 22.274 25.0507 21.3144 26.8628 18.3363C28.689 15.3351 27.5362 11.5837 24.4836 9.91148ZM25.7933 17.7504C24.3266 20.1605 21.0765 20.9349 18.6011 19.5789C16.0869 18.2016 15.2224 15.1404 16.6739 12.7548C18.1254 10.3694 21.352 9.54906 23.866 10.9263C26.3285 12.2754 27.2283 15.3921 25.7933 17.7504ZM39.0695 19.2684H33.1822C32.8411 19.2684 32.5647 19.5307 32.5647 19.8543C32.5647 20.1779 32.8411 20.4402 33.1822 20.4402H39.0695C39.4106 20.4402 39.687 20.1779 39.687 19.8543C39.687 19.5307 39.4106 19.2684 39.0695 19.2684ZM39.0695 15.7527H33.7586C33.4175 15.7527 33.141 16.0151 33.141 16.3387C33.141 16.6623 33.4175 16.9246 33.7586 16.9246H39.0695C39.4106 16.9246 39.687 16.6623 39.687 16.3387C39.687 16.0151 39.4106 15.7527 39.0695 15.7527ZM39.0695 22.784H30.9591C30.6179 22.784 30.3415 23.0463 30.3415 23.3699C30.3415 23.6935 30.6179 23.9559 30.9591 23.9559H39.0695C39.4106 23.9559 39.687 23.6935 39.687 23.3699C39.687 23.0463 39.4106 22.784 39.0695 22.784ZM14.2854 5.86719C14.2854 5.54359 14.0089 5.28125 13.6678 5.28125H3.08723C2.74618 5.28125 2.46969 5.54359 2.46969 5.86719C2.46969 6.19078 2.74618 6.45312 3.08723 6.45312H13.6678C14.0089 6.45312 14.2854 6.19078 14.2854 5.86719ZM9.96256 8.72148H3.08723C2.74618 8.72148 2.46969 8.98383 2.46969 9.30742C2.46969 9.63102 2.74618 9.89336 3.08723 9.89336H9.96256C10.3036 9.89336 10.5801 9.63102 10.5801 9.30742C10.5801 8.98383 10.3036 8.72148 9.96256 8.72148ZM9.96256 22.784H3.08723C2.74618 22.784 2.46969 23.0463 2.46969 23.3699C2.46969 23.6935 2.74618 23.9559 3.08723 23.9559H9.96256C10.3036 23.9559 10.5801 23.6935 10.5801 23.3699C10.5801 23.0463 10.3036 22.784 9.96256 22.784ZM39.0695 12.2371H33.4292C33.0881 12.2371 32.8117 12.4995 32.8117 12.823C32.8117 13.1466 33.0881 13.409 33.4292 13.409H39.0695C39.4106 13.409 39.687 13.1466 39.687 12.823C39.687 12.4995 39.4106 12.2371 39.0695 12.2371Z" fill="#666666"/>
</g>
<defs>
<clipPath id="clip0">
<rect width="42.1577" height="40" fill="white" transform="translate(-0.000488281)"/>
</clipPath>
</defs>
</svg>
